<svg width="512" height="512" viewBox="0 0 512 512" fill="none" xmlns="http://www.w3.org/2000/svg" xmlns:xlink="http://www.w3.org/1999/xlink" class=""><rect id="«r9»" width="512" height="512" x="0" y="0" rx="128" fill="url(#«ra»)" stroke="#FFFFFF" stroke-width="0" stroke-opacity="100%" paint-order="stroke"></rect><clipPath id="clip"><use xlink:href="#«r9»"></use></clipPath><defs><radialGradient id="«ra»" cx="50%" cy="50%" r="100%" fx="50%" fy="0%" gradientUnits="objectBoundingBox"><stop stop-color="#4d4d4d"></stop><stop offset="1" stop-color="#000000"></stop></radialGradient><radialGradient id="«rb»" cx="0" cy="0" r="1" gradientUnits="userSpaceOnUse" gradientTransform="translate(256) rotate(90) scale(512)"><stop stop-color="white"></stop><stop offset="1" stop-color="white" stop-opacity="0"></stop></radialGradient></defs><svg width="352" height="352" viewBox="0 0 49 60" fill="none" xmlns="http://www.w3.org/2000/svg" x="80" y="80" alignment-baseline="middle" style="color: rgb(230, 230, 230);">
<path d="M2.86932 39V9.90909H8.1392V34.5824H20.9517V39H2.86932Z" fill="white"></path>
<path d="M41.679 29.9062C41.5464 28.6657 40.9877 27.6998 40.0028 27.0085C39.0275 26.3172 37.7585 25.9716 36.196 25.9716C35.0975 25.9716 34.1553 26.1373 33.3693 26.4688C32.5833 26.8002 31.982 27.25 31.5653 27.8182C31.1487 28.3864 30.9356 29.035 30.9261 29.7642C30.9261 30.3703 31.0634 30.8958 31.3381 31.3409C31.6222 31.786 32.0057 32.1648 32.4886 32.4773C32.9716 32.7803 33.5066 33.036 34.0938 33.2443C34.6809 33.4527 35.2727 33.6278 35.8693 33.7699L38.5966 34.4517C39.6951 34.7074 40.7509 35.053 41.7642 35.4886C42.7869 35.9242 43.7008 36.4735 44.5057 37.1364C45.3201 37.7992 45.964 38.5994 46.4375 39.5369C46.911 40.4744 47.1477 41.5729 47.1477 42.8324C47.1477 44.5369 46.7121 46.0379 45.8409 47.3352C44.9697 48.6231 43.7102 49.6316 42.0625 50.3608C40.4242 51.0805 38.4403 51.4403 36.1108 51.4403C33.8475 51.4403 31.8826 51.09 30.2159 50.3892C28.5587 49.6884 27.2614 48.6657 26.3239 47.321C25.3958 45.9763 24.8939 44.3381 24.8182 42.4062H30.0028C30.0786 43.4195 30.3911 44.2623 30.9403 44.9347C31.4896 45.607 32.2045 46.1089 33.0852 46.4403C33.9754 46.7718 34.9697 46.9375 36.0682 46.9375C37.214 46.9375 38.2178 46.767 39.0795 46.4261C39.9508 46.0758 40.6326 45.5928 41.125 44.9773C41.6174 44.3523 41.8684 43.6231 41.8778 42.7898C41.8684 42.0322 41.6458 41.4072 41.2102 40.9148C40.7746 40.4129 40.1638 39.9962 39.3778 39.6648C38.6013 39.3239 37.6922 39.0208 36.6506 38.7557L33.3409 37.9034C30.9451 37.2879 29.0511 36.3551 27.6591 35.1051C26.2765 33.8456 25.5852 32.1742 25.5852 30.0909C25.5852 28.3769 26.0492 26.8759 26.9773 25.5881C27.9148 24.3002 29.1884 23.3011 30.7983 22.5909C32.4081 21.8712 34.2311 21.5114 36.267 21.5114C38.3314 21.5114 40.1402 21.8712 41.6932 22.5909C43.2557 23.3011 44.482 24.2907 45.3722 25.5597C46.2623 26.8191 46.7216 28.268 46.75 29.9062H41.679Z" fill="white"></path>
</svg>
</svg>